<svg width="222" height="160" viewBox="0 0 222 160" fill="none" xmlns="http://www.w3.org/2000/svg">
<path d="M53.7401 145.406C53.7401 146.164 49.2785 146.774 43.7778 146.774C38.2771 146.774 33.8154 146.164 33.8154 145.406C33.8154 144.649 38.2771 144.039 43.7778 144.039C49.2785 144.039 53.7401 144.649 53.7401 145.406Z" fill="#FBE7C5"/>
<path d="M76.0478 159.026C95.5465 159.026 111.353 156.852 111.353 154.171C111.353 151.49 95.5465 149.316 76.0478 149.316C56.549 149.316 40.7422 151.49 40.7422 154.171C40.7422 156.852 56.549 159.026 76.0478 159.026Z" fill="#FBE7C5"/>
<path d="M167.406 157.365C190.614 157.365 209.428 154.778 209.428 151.588C209.428 148.398 190.614 145.811 167.406 145.811C144.198 145.811 125.385 148.398 125.385 151.588C125.385 154.778 144.198 157.365 167.406 157.365Z" fill="#FBE7C5"/>
<path d="M113.502 147.631C139.382 147.631 160.361 144.748 160.361 141.191C160.361 137.635 139.382 134.751 113.502 134.751C87.623 134.751 66.6436 137.635 66.6436 141.191C66.6436 144.748 87.623 147.631 113.502 147.631Z" fill="#FBE7C5"/>
<path d="M220.242 139.771C220.242 141.414 210.538 142.753 198.562 142.753C186.592 142.753 176.882 141.42 176.882 139.771C176.882 138.127 186.586 136.788 198.562 136.788C210.532 136.788 220.242 138.121 220.242 139.771Z" fill="#FBE7C5"/>
<path d="M33.0697 130.753C21.9097 128.205 11.4425 119.499 5.92419 109.332C0.411731 99.1637 -1.72515 86.9001 1.54475 75.8047C4.80878 64.7094 13.9199 55.1638 25.2325 52.7628C38.9989 49.8392 52.8828 57.424 63.397 66.7758C67.6943 70.5975 71.7449 74.8009 76.7173 77.6892C81.6956 80.5716 87.9242 81.9923 93.2312 79.7732C99.6008 77.108 102.871 70.2159 105.97 64.0519C113.602 48.8706 123.617 34.6521 136.814 23.95C150.011 13.2421 166.584 6.23268 183.573 6.29138C194.158 6.3266 205.206 9.38517 212.58 16.9758C221.926 26.5977 223.558 41.6146 220.769 54.7353C217.981 67.856 211.459 79.8261 206.275 92.1953C201.091 104.565 197.158 118.178 199.935 131.299L33.0697 130.753Z" fill="#FBE7C5"/>
<path d="M103.857 49.8276C107.085 44.5265 109.886 38.8731 111.124 32.7971C112.745 24.8483 111.359 16.4593 105.853 10.26C98.0917 1.53045 82.1179 -2.6083 71.1751 1.74766C66.6665 3.54406 62.7509 7.31296 61.7177 12.0505C59.9624 20.0697 66.0795 27.0087 69.8719 33.4076C71.909 36.8478 73.4294 40.8515 73.5762 44.8846C73.7112 48.7357 71.2984 52.2932 71.8855 56.1795C72.2142 58.3634 73.5292 60.3183 75.2317 61.7331C78.9536 64.8269 84.2137 65.954 88.8808 64.7623C96.0957 62.9248 100.24 55.7686 103.857 49.8276Z" fill="#FBE7C5"/>
<path d="M87.3251 25.8347H7.22124C7.06861 25.8347 6.93945 25.958 6.93945 26.1165V88.9961C6.93945 89.1487 7.06274 89.2779 7.22124 89.2779H87.3251C87.4777 89.2779 87.6069 89.1546 87.6069 88.9961V26.1165C87.6069 25.9639 87.4777 25.8347 87.3251 25.8347ZM63.0386 57.2775H55.5771V50.0273H63.0386V57.2775ZM63.6021 50.0273H71.0636V57.2775H63.6021V50.0273ZM46.9943 57.841V65.0912H39.5328V57.841H46.9943ZM39.5328 57.2775V50.0273H46.9943V57.2775H39.5328V57.2775ZM47.5579 57.841H55.0194V65.0912H47.5579V57.841ZM47.5579 57.2775V50.0273H55.0194V57.2775H47.5579V57.2775ZM55.5771 49.4696V42.2195H63.0386V49.4696H55.5771V49.4696ZM55.0194 49.4696H47.5579V42.2195H55.0194V49.4696ZM46.9943 49.4696H39.5328V42.2195H46.9943V49.4696V49.4696ZM38.9693 49.4696H31.5078V42.2195H38.9693V49.4696ZM38.9693 50.0273V57.2775H31.5078V50.0273H38.9693ZM30.9501 57.2775H23.4886V50.0273H30.9501V57.2775ZM22.925 57.2775H15.4635V50.0273H22.925V57.2775ZM22.925 57.841V65.0912H15.4635V57.841H22.925ZM23.4886 57.841H30.9501V65.0912H23.4886V57.841ZM31.5078 57.841H38.9693V65.0912H31.5078V57.841ZM38.9693 65.6489V72.899H31.5078V65.6489H38.9693ZM39.5328 65.6489H46.9943V72.899H39.5328V65.6489ZM47.5579 65.6489H55.0194V72.899H47.5579V65.6489ZM55.5771 65.6489H63.0386V72.899H55.5771V65.6489ZM55.5771 65.0853V57.841H63.0386V65.0912H55.5771V65.0853ZM63.6021 57.841H71.0636V65.0912H63.6021V57.841ZM71.6213 57.841H79.0828V65.0912H71.6213V57.841ZM71.6213 57.2775V50.0273H79.0828V57.2775H71.6213V57.2775ZM71.6213 49.4696V42.2195H79.0828V49.4696H71.6213V49.4696ZM71.0636 49.4696H63.6021V42.2195H71.0636V49.4696V49.4696ZM63.6021 41.6559V34.4116H71.0636V41.6618H63.6021V41.6559ZM63.0386 41.6559H55.5771V34.4116H63.0386V41.6559ZM55.0194 41.6559H47.5579V34.4116H55.0194V41.6559ZM46.9943 41.6559H39.5328V34.4116H46.9943V41.6559V41.6559ZM38.9693 41.6559H31.5078V34.4116H38.9693V41.6559ZM30.9501 41.6559H23.4886V34.4116H30.9501V41.6559ZM30.9501 42.2195V49.4696H23.4886V42.2195H30.9501ZM22.925 49.4696H15.4635V42.2195H22.925V49.4696ZM14.8999 49.4696H7.50303V42.2195H14.8999V49.4696ZM14.8999 50.0273V57.2775H7.50303V50.0273H14.8999ZM14.8999 57.841V65.0912H7.50303V57.841H14.8999ZM14.8999 65.6489V72.899H7.50303V65.6489H14.8999ZM15.4635 65.6489H22.925V72.899H15.4635V65.6489ZM23.4886 65.6489H30.9501V72.899H23.4886V65.6489ZM30.9501 73.4567V80.7069H23.4886V73.4567H30.9501ZM31.5078 73.4567H38.9693V80.7069H31.5078V73.4567ZM39.5328 73.4567H46.9943V80.7069H39.5328V73.4567ZM47.5579 73.4567H55.0194V80.7069H47.5579V73.4567ZM55.5771 73.4567H63.0386V80.7069H55.5771V73.4567ZM63.6021 73.4567H71.0636V80.7069H63.6021V73.4567ZM63.6021 72.899V65.6489H71.0636V72.899H63.6021ZM71.6213 65.6489H79.0828V72.899H71.6213V65.6489ZM79.6464 65.6489H87.0433V72.899H79.6464V65.6489ZM79.6464 65.0853V57.841H87.0433V65.0912H79.6464V65.0853ZM79.6464 57.2775V50.0273H87.0433V57.2775H79.6464V57.2775ZM79.6464 49.4696V42.2195H87.0433V49.4696H79.6464V49.4696ZM79.6464 41.6559V34.4116H87.0433V41.6618H79.6464V41.6559ZM79.0828 41.6559H71.6213V34.4116H79.0828V41.6559ZM71.6213 33.848V26.3983H79.0828V33.848H71.6213ZM71.0636 33.848H63.6021V26.3983H71.0636V33.848V33.848ZM63.0386 33.848H55.5771V26.3983H63.0386V33.848ZM55.0194 33.848H47.5579V26.3983H55.0194V33.848ZM46.9943 33.848H39.5328V26.3983H46.9943V33.848V33.848ZM38.9693 33.848H31.5078V26.3983H38.9693V33.848ZM30.9501 33.848H23.4886V26.3983H30.9501V33.848ZM22.925 33.848H15.4635V26.3983H22.925V33.848ZM22.925 34.4116V41.6618H15.4635V34.4116H22.925ZM14.8999 41.6559H7.50303V34.4116H14.8999V41.6559ZM7.50303 73.4567H14.8999V80.7069H7.50303V73.4567ZM15.4635 73.4567H22.925V80.7069H15.4635V73.4567ZM22.925 81.2704V88.7202H15.4635V81.2704H22.925ZM23.4886 81.2704H30.9501V88.7202H23.4886V81.2704ZM31.5078 81.2704H38.9693V88.7202H31.5078V81.2704ZM39.5328 81.2704H46.9943V88.7202H39.5328V81.2704ZM47.5579 81.2704H55.0194V88.7202H47.5579V81.2704ZM55.5771 81.2704H63.0386V88.7202H55.5771V81.2704ZM63.6021 81.2704H71.0636V88.7202H63.6021V81.2704ZM71.6213 81.2704H79.0828V88.7202H71.6213V81.2704ZM71.6213 80.7069V73.4567H79.0828V80.7069H71.6213ZM79.6464 73.4567H87.0433V80.7069H79.6464V73.4567ZM87.0433 33.848H79.6464V26.3983H87.0433V33.848ZM14.8999 26.3983V33.848H7.50303V26.3983H14.8999ZM7.50303 81.2704H14.8999V88.7202H7.50303V81.2704ZM79.6464 88.7202V81.2704H87.0433V88.7202H79.6464Z" fill="#333333"/>
<path d="M39.9785 43.8162C39.9785 43.8162 41.769 59.8017 50.6512 62.5844L66.9949 57.9994C66.9949 57.9994 57.238 53.5085 56.24 43.8162H39.9785Z" fill="#F4B483"/>
<path d="M31.508 58.5923C31.508 58.5923 30.146 76.791 23.3831 79.9553L10.9375 74.7363C10.9375 74.7363 18.3696 69.6289 19.1269 58.5923H31.508Z" fill="#F4B483"/>
<path d="M73.5372 31.0925L62.6523 34.2576L66.4189 47.2112L77.3038 44.0462L73.5372 31.0925Z" fill="#323759"/>
<path d="M72.972 32.3767L63.8232 35.0369L66.2556 43.402L75.4043 40.7419L72.972 32.3767Z" fill="white"/>
<path d="M42.6049 70.3881L34.2314 68.0933L31.5022 78.052L39.8757 80.3468L42.6049 70.3881Z" fill="#323759"/>
<path d="M41.7248 70.9985L34.6875 69.0698L32.9233 75.507L39.9607 77.4357L41.7248 70.9985Z" fill="white"/>
<path d="M63.6678 131.563C63.6678 131.563 51.005 81.3816 56.6818 75.3173C62.3587 69.253 109.558 66.4469 114.73 71.1433C119.902 75.8398 119.485 131.499 119.485 131.499L63.6678 131.563Z" fill="#323759"/>
<path d="M114.736 71.1435C114.577 71.0026 114.378 70.8617 114.143 70.7326C98.4801 69.7639 70.4892 72.482 66.1978 77.0669C61.1609 82.4561 70.5773 122.622 72.7494 131.552L119.485 131.499C119.485 131.499 119.908 75.84 114.736 71.1435Z" fill="#323759"/>
<path d="M129.03 89.7942C129.03 89.7942 138.77 119.053 141.388 119.781C144.006 120.509 170.835 125.564 170.835 125.564L169.526 132.109C169.526 132.109 136.838 133.131 129.03 127.601C121.217 122.071 129.03 89.7942 129.03 89.7942Z" fill="#F4B8B7"/>
<path d="M129.03 89.7942C129.03 89.7942 121.217 122.071 129.03 127.601C132.024 129.72 138.664 130.876 145.72 131.499L147.611 122.071L147.341 121.906L147.141 120.996C144.235 120.415 142.051 119.957 141.394 119.775C138.77 119.053 129.03 89.7942 129.03 89.7942Z" fill="#729F65"/>
<path d="M150.387 121.642C149.125 122.974 148.274 124.63 147.798 126.362C147.323 128.093 147.206 129.896 147.294 131.68C147.305 131.874 147.106 132.085 146.906 132.132C146.707 132.179 146.495 132.138 146.29 132.109C146.084 132.08 145.861 132.068 145.685 132.174C145.509 132.279 145.409 132.485 145.221 132.561C144.981 132.655 144.722 132.52 144.482 132.432C143.959 132.238 143.378 132.279 142.82 132.238C142.263 132.203 141.652 132.056 141.329 131.622C141.094 131.311 141.059 130.905 141.03 130.524C140.895 128.751 140.777 126.872 141.617 125.281C142.151 124.272 143.032 123.444 143.489 122.405C143.713 121.9 143.824 121.354 144.129 120.89C144.429 120.427 144.998 120.051 145.562 120.174C146.031 120.28 146.36 120.697 146.818 120.826C147.235 120.937 147.669 120.796 148.098 120.749C149.002 120.65 149.812 120.961 150.387 121.642Z" fill="#536969"/>
<path d="M80.4746 131.564H129.999C128.613 121.948 127.328 111.304 127.474 105.786C127.598 101.266 129.024 89.865 129.024 89.865C128.478 89.2192 116.25 79.75 106.293 80.0435C89.4037 80.5484 80.821 92.4774 80.821 92.4774C80.821 92.4774 81.3904 101.324 81.8072 105.921C82.3062 111.392 81.3845 121.983 80.4746 131.564Z" fill="#F7F4E3"/>
<path d="M127.469 106.825C127.469 106.437 127.469 106.067 127.481 105.715C127.598 101.371 128.919 90.6925 129.025 89.853C128.508 89.2659 119.708 82.4385 111.002 80.5305L111.078 88.8843C111.078 88.8843 114.319 108.762 115.751 131.493H129.993C128.696 122.47 127.486 112.554 127.469 106.825Z" fill="#729F65"/>
<path d="M112.14 79.333L119.959 88.6378L114.159 86.8943L111.071 88.8844L107.555 80.1021L112.14 79.333Z" fill="#536969"/>
<path d="M80.4746 131.499H103.158C100.834 111.163 100.076 91.8784 100.076 91.8784L97.5286 81.3584C86.445 84.6107 80.821 92.4127 80.821 92.4127C80.821 92.4127 81.3904 101.26 81.8072 105.856C82.3062 111.328 81.3845 121.912 80.4746 131.499Z" fill="#729F65"/>
<path d="M127.076 58.3163C130.933 55.6275 133.768 51.2481 134.801 46.3697C135.13 44.8257 135.283 43.2113 134.978 41.6556C134.678 40.0999 133.874 38.6088 132.629 37.781C131.385 36.9533 129.671 36.9122 128.538 37.8867C127.763 36.5306 126.107 35.9201 124.675 36.1784C123.242 36.4367 121.974 37.3114 120.783 38.2096C116.092 36.149 110.439 37.3407 106.781 41.0803C103.676 41.6145 100.881 44.0097 99.6309 47.1505C98.3805 50.2912 98.3629 53.9075 99.0673 57.2654C99.5722 59.6606 100.488 62.0617 102.19 63.6761C104.239 65.6134 107.11 66.1241 109.805 66.083C116.086 65.9832 121.804 61.9912 127.076 58.3163Z" fill="#323759"/>
<path d="M102.489 54.4595C101.344 65.455 98.4912 84.916 98.4912 84.916C100.98 89.3189 110.367 88.7612 110.15 87.2877C110.027 86.454 110.226 85.004 110.714 83.7008C111.089 82.691 111.641 81.7635 112.346 81.2703C112.639 81.0649 113.162 81.0003 113.837 80.9944C113.948 81.0003 114.007 80.9944 114.007 80.9944C117.113 81.0179 123.13 82.2038 125.754 78.4466C129.018 73.7736 129.376 60.7645 129.024 54.4947C128.819 50.9078 125.736 45.8767 119.531 44.7848C111.947 43.4463 103.64 43.3935 102.489 54.4595Z" fill="#F4B8B7"/>
<path d="M103.57 77.9299C103.57 77.9299 105.919 81.3172 110.715 83.6948C111.091 82.6851 111.642 81.7575 112.347 81.2644C112.64 81.0589 113.163 80.9944 113.838 80.9885C112.91 80.965 108.296 80.6832 103.57 77.9299Z" fill="#D29695"/>
<path d="M121.358 66.7647C121.78 66.7588 122.221 66.7705 122.573 67.0347C122.849 67.2402 122.978 67.5807 122.954 67.9212C122.89 68.6961 122.191 69.1305 121.499 69.2949C121.275 69.3477 121.17 69.0072 121.393 68.9544C121.921 68.8311 122.514 68.5435 122.596 67.9447C122.632 67.704 122.549 67.4574 122.35 67.3106C122.074 67.111 121.704 67.1228 121.375 67.1228C121.14 67.1286 121.129 66.7705 121.358 66.7647Z" fill="#C29E71"/>
<path d="M116.943 62.4907C116.92 63.1482 117.337 63.6941 117.877 63.7118C118.417 63.7294 118.869 63.2128 118.892 62.5553C118.916 61.8978 118.499 61.3518 117.959 61.3342C117.419 61.3166 116.967 61.8332 116.943 62.4907Z" fill="#2A1C29"/>
<path d="M123.448 63.1189C123.425 63.7764 123.842 64.3223 124.382 64.3399C124.922 64.3575 125.374 63.8409 125.397 63.1834C125.421 62.5259 125.004 61.98 124.464 61.9624C123.93 61.9447 123.472 62.4613 123.448 63.1189Z" fill="#2A1C29"/>
<path d="M115.28 56.9254C116.443 56.2033 117.916 56.0624 119.184 56.6201C119.36 56.6964 119.466 56.896 119.396 57.0839C119.331 57.26 119.114 57.3715 118.932 57.2952C117.916 56.8491 116.683 56.896 115.732 57.489C115.568 57.5888 115.362 57.6005 115.227 57.4361C115.116 57.2952 115.116 57.031 115.28 56.9254Z" fill="#534859"/>
<path d="M127.662 58.0819C126.735 57.0722 125.355 56.5439 123.987 56.7376C123.794 56.7669 123.647 56.9254 123.665 57.125C123.682 57.3129 123.858 57.4773 124.052 57.4479C125.15 57.2894 126.324 57.671 127.081 58.4929C127.21 58.6338 127.41 58.6983 127.58 58.5751C127.721 58.4811 127.792 58.2287 127.662 58.0819Z" fill="#534859"/>
<path d="M113.89 65.0857C113.849 65.5906 114.589 66.0661 115.54 66.1483C116.497 66.2305 117.307 65.89 117.348 65.3851C117.389 64.8802 116.649 64.4047 115.698 64.3225C114.742 64.2403 113.931 64.5808 113.89 65.0857Z" fill="#D7A290"/>
<path d="M124.428 66.0191C124.387 66.5239 125.127 66.9994 126.078 67.0816C127.035 67.1638 127.845 66.8233 127.886 66.3185C127.927 65.8136 127.188 65.3381 126.237 65.2559C125.28 65.1737 124.469 65.5142 124.428 66.0191Z" fill="#D7A290"/>
<path d="M123.149 72.8229C123.037 73.4452 122.691 74.0088 122.215 74.4256C122.127 74.5077 122.045 74.5723 121.951 74.6369C121.347 75.0713 120.595 75.2827 119.85 75.3062C118.758 75.3472 117.642 74.9715 116.856 74.2142C116.55 73.9207 116.298 73.5743 116.122 73.1927C115.828 72.5881 115.711 71.9012 115.828 71.2437C115.893 70.8739 116.075 70.4805 116.427 70.3866C116.656 70.3279 116.879 70.4042 117.09 70.5275C117.202 70.5921 117.308 70.6684 117.407 70.7388C118.223 71.3435 119.104 71.8954 120.09 72.1302C120.783 72.2945 121.54 72.2828 122.209 72.0304C122.433 71.9423 122.767 71.6488 123.014 71.8014C123.02 71.8073 123.02 71.8073 123.026 71.8073C123.284 72.0069 123.202 72.5587 123.149 72.8229Z" fill="#B95D42"/>
<path d="M123.007 71.8132C122.96 71.9835 122.872 72.1537 122.761 72.2946C122.514 72.5999 122.144 72.7995 121.769 72.9228C120.501 73.3396 119.062 73.0108 117.964 72.2535C117.612 72.0069 117.278 71.7075 117.119 71.3025C117.025 71.0618 117.008 70.7859 117.084 70.5393C117.195 70.6039 117.301 70.6802 117.401 70.7506C118.217 71.3553 119.097 71.9071 120.084 72.142C120.776 72.3063 121.534 72.2946 122.203 72.0422C122.426 71.9541 122.761 71.6606 123.007 71.8132Z" fill="white"/>
<path d="M122.215 74.4313C122.127 74.5135 122.044 74.5781 121.951 74.6427C121.346 75.0771 120.594 75.2884 119.849 75.3119C118.757 75.353 117.642 74.9773 116.855 74.22C116.55 73.9265 116.297 73.5801 116.121 73.1985C116.966 73.1105 117.829 73.0987 118.681 73.1633C119.696 73.2396 120.729 73.4333 121.598 73.9558C121.81 74.0967 122.021 74.2493 122.215 74.4313Z" fill="#884632"/>
<path d="M122.902 52.0643C120.236 52.6103 117.295 51.442 115.734 49.2112C115.54 49.8863 114.976 50.444 114.295 50.6377C113.62 50.8315 112.845 50.6495 112.323 50.174C112.217 52.3461 111.648 54.5358 110.397 56.3087C109.147 58.0875 107.163 59.4084 104.996 59.5786C103.787 59.6725 102.501 59.3849 101.597 58.5689C100.758 57.8057 100.341 56.6844 100.089 55.5808C99.484 52.9214 99.666 50.0566 100.764 47.5557C101.856 45.0548 103.881 42.9414 106.4 41.8847C108.806 40.8691 111.507 40.8456 114.119 40.9337C116.808 41.0276 119.52 41.239 122.074 42.0902C124.146 42.7771 126.113 43.9159 127.563 45.5656C127.845 45.8885 128.338 46.3405 128.332 46.7925C128.326 47.2328 128.015 47.8081 127.821 48.1956C127.369 49.1055 126.723 49.9098 125.948 50.5614C125.08 51.307 124.023 51.8353 122.902 52.0643Z" fill="#323759"/>
<path d="M103.617 59.7193C102.707 58.6508 101.386 57.8407 99.9419 57.9581C98.5153 58.0755 97.3941 59.0442 97.0301 60.4237C96.7894 61.3513 96.8657 62.3317 97.0418 63.2768C97.2238 64.269 97.5056 65.2493 97.9811 66.1358C98.8793 67.8089 100.752 69.3353 102.766 68.6719C105.448 67.7854 105.63 64.4803 104.961 62.1732C104.703 61.3161 104.233 60.4472 103.617 59.7193Z" fill="#F4B8B7"/>
<path d="M100.071 60.3475C99.8246 60.2184 99.6133 60.5882 99.854 60.7174C101.568 61.6038 102.525 63.5118 102.179 65.4197C102.132 65.6897 102.543 65.8013 102.59 65.5312C102.971 63.4472 101.967 61.3279 100.071 60.3475Z" fill="#D29695"/>
<path d="M102.032 62.5602C101.304 62.2608 100.5 62.1962 99.7368 62.3547C99.6253 62.3782 99.5607 62.5132 99.5901 62.6189C99.6253 62.7363 99.7368 62.7891 99.8543 62.7656C100.547 62.6247 101.269 62.7011 101.927 62.9711C102.032 63.0122 102.161 62.9241 102.191 62.8243C102.214 62.7011 102.138 62.6071 102.032 62.5602Z" fill="#D29695"/>
<path d="M99.401 79.333L94.6224 81.3525L90.3662 93.4224L97.6222 89.5184L100.082 91.8784L99.401 79.333Z" fill="#536969"/>
<path d="M80.8269 92.4146C80.8269 92.4146 61.9941 125.566 66.0683 131.242C70.1425 136.919 106.522 142.449 106.522 142.449L108.019 135.088C108.019 135.088 81.5314 127.855 80.9854 125.783L81.6547 117.476C81.6488 117.476 83.8326 95.3792 80.8269 92.4146Z" fill="#F4B8B7"/>
<path d="M80.9795 125.781L81.6488 117.474C81.6488 117.474 83.8326 95.3772 80.8269 92.4067C80.8269 92.4067 61.9941 125.558 66.0683 131.235C67.3833 133.066 72.0798 134.886 77.8271 136.512L79.6058 135.896L83.1047 127.155C81.8543 126.597 81.0676 126.121 80.9795 125.781Z" fill="#729F65"/>
<path d="M87.3611 128.123C84.4434 130.712 82.5061 134.387 82.013 138.256C81.2439 138.268 80.5336 137.951 79.8996 137.516C79.154 138.021 78.1678 137.91 77.2813 137.775C76.9291 137.722 76.5358 137.645 76.3303 137.358C76.1953 137.17 76.1718 136.929 76.1483 136.7C76.0602 135.796 75.9722 134.874 76.1894 133.994C76.4007 133.137 76.888 132.374 77.3694 131.628C78.203 130.342 79.0366 129.051 79.8702 127.765C80.1579 127.325 80.4456 126.873 80.8624 126.556C81.2792 126.233 81.8427 126.057 82.3359 126.233C82.6411 126.345 82.8877 126.573 83.1754 126.726C83.6567 126.979 84.2203 126.996 84.7604 126.979C85.3005 126.961 85.8523 126.908 86.3748 127.049C86.8973 127.19 87.2495 127.589 87.3611 128.123Z" fill="#536969"/>
<path d="M81.7133 97.8959C81.637 105.076 81.3611 112.255 80.8797 119.423C80.7447 121.46 80.5862 123.497 80.4159 125.535C80.369 126.08 81.2261 126.063 81.273 125.517C81.8718 118.361 82.2652 111.187 82.4589 104.007C82.5117 101.964 82.5469 99.9212 82.5704 97.8842C82.5763 97.3265 81.7192 97.3441 81.7133 97.8959Z" fill="#536969"/>
<path d="M106.517 142.442C106.517 142.442 120.993 148.336 121.651 147.132C122.308 145.935 115.446 143.657 115.446 143.657C115.446 143.657 125.068 145.606 125.32 144.62C125.572 143.639 116.315 141.185 116.315 141.185C116.315 141.185 127.369 143.205 127.504 142.054C127.639 140.903 117.753 138.743 117.753 138.743C117.753 138.743 127.04 139.271 127.105 138.432C127.216 136.923 108.014 135.08 108.014 135.08L106.517 142.442Z" fill="#F4B8B7"/>
<path d="M109.394 135.227C109.394 135.227 116.779 132.55 117.524 133.131C118.27 133.712 114.266 136.642 114.266 136.642L109.394 135.227Z" fill="#F4B8B7"/>
<path d="M87.607 127.354H49.3779C48.9728 127.354 48.7322 127.683 48.8437 128.088L55.495 152.257C55.6066 152.662 56.0234 152.991 56.4285 152.991H94.6576C95.0627 152.991 95.3033 152.662 95.1918 152.257L88.5405 128.088C88.4348 127.683 88.0121 127.354 87.607 127.354Z" fill="#323759"/>
<path d="M92.3208 152.697L86.6733 132.186C86.5794 131.839 86.2213 131.563 85.8808 131.563H53.4401C53.0937 131.563 52.8941 131.839 52.988 132.186L58.6355 152.697C58.6296 152.686 58.6707 152.832 58.7177 152.985H92.4089L92.3208 152.697Z" fill="#323759"/>
<path d="M52.1538 129.168C52.1538 129.667 51.7487 130.066 51.2556 130.066C50.7566 130.066 50.3574 129.661 50.3574 129.168C50.3574 128.675 50.7625 128.27 51.2556 128.27C51.7487 128.27 52.1538 128.675 52.1538 129.168Z" fill="#9EA0A5"/>
<path d="M51.6729 129.168C51.6729 129.397 51.4852 129.585 51.2564 129.585C51.0276 129.585 50.8398 129.397 50.8398 129.168C50.8398 128.939 51.0276 128.751 51.2564 128.751C51.4852 128.751 51.6729 128.939 51.6729 129.168Z" fill="#F5F5F5"/>
<path d="M85.165 131.845H52.7242C52.3779 131.845 52.1783 132.121 52.2722 132.467L57.9197 152.979C57.9138 152.956 58.0958 153.602 58.0958 153.602H91.7811L91.6109 152.979L85.9634 132.467C85.8636 132.121 85.5113 131.845 85.165 131.845Z" fill="#FFEAB7"/>
<path d="M91.6053 152.979L87.9714 139.771H54.2803L57.9142 152.979C57.9083 152.956 58.0903 153.602 58.0903 153.602H91.7756L91.6053 152.979Z" fill="#323759"/>
<path d="M85.2292 156.778H51.5615L58.1072 153.602H91.7749L85.2292 156.778Z" fill="#323759"/>
<path d="M128.161 92.7885L196.794 81.382C197.915 81.1942 198.937 82.0748 198.931 83.2254L198.637 126.773C198.631 127.654 198.021 128.405 197.17 128.581L130.216 142.436C128.572 142.823 126.617 141.778 126.617 139.366V94.6202C126.623 93.7161 127.275 92.9412 128.161 92.7885Z" fill="#323759"/>
<path d="M131.267 92.6649L196.794 81.7984C197.915 81.6106 198.937 82.4853 198.931 83.6242L198.649 126.843C198.643 127.712 198.033 128.458 197.181 128.634L131.936 142.036C130.797 142.271 129.729 141.402 129.729 140.234V94.4847C129.734 93.5748 130.38 92.8116 131.267 92.6649Z" fill="#323759"/>
<path d="M160.884 115.325L157.086 136.859L177.727 132.62L160.884 115.325Z" fill="#534859"/>
<path d="M160.027 154.734L150.968 151.658C149.518 151.165 149.606 149.087 151.092 148.717L166.449 144.872C166.719 144.807 166.995 144.813 167.259 144.889L176.176 147.555C177.65 147.995 177.632 150.085 176.153 150.502L160.936 154.758C160.637 154.84 160.32 154.834 160.027 154.734Z" fill="#323759"/>
<path d="M173.576 113.271C173.4 112.46 172.619 111.938 171.803 112.085L162.14 113.834C161.418 113.963 160.889 114.591 160.878 115.325L160.473 154.887L181.254 149.069L173.576 113.271ZM171.104 144.032C168.192 144.332 165.486 141.179 165.058 136.988C164.629 132.802 166.643 129.162 169.554 128.869C172.466 128.569 175.173 131.722 175.601 135.913C176.03 140.099 174.016 143.733 171.104 144.032Z" fill="#323759"/>
<path d="M168.139 42.1312C158.306 42.1312 150.305 34.1296 150.305 24.2964C150.305 14.4632 158.306 6.46167 168.139 6.46167C177.973 6.46167 185.974 14.4632 185.974 24.2964C185.974 34.1296 177.973 42.1312 168.139 42.1312ZM168.139 11.5162C161.089 11.5162 155.353 17.2518 155.353 24.3023C155.353 31.3529 161.089 37.0884 168.139 37.0884C175.19 37.0884 180.926 31.3529 180.926 24.3023C180.926 17.2518 175.19 11.5162 168.139 11.5162Z" fill="#5F57B0"/>
<path d="M161.459 28.7991L160.666 27.3138L167.423 23.7269L170.276 13.0483L171.902 13.4828L168.861 24.8717L161.459 28.7991Z" fill="#5F57B0"/>
</svg>
